<svg width="180" height="70" xmlns="http://www.w3.org/2000/svg">
 <!-- Created with Method Draw - http://github.com/duopixel/Method-Draw/ -->
 <g>
  <title>background</title>
  <rect fill="#4dd14d" id="canvas_background" height="72" width="182" y="-1" x="-1"/>
  <g display="none" overflow="visible" y="0" x="0" height="100%" width="100%" id="canvasGrid">
   <rect fill="url(#gridpattern)" stroke-width="0" y="0" x="0" height="100%" width="100%"/>
  </g>
 </g>
 <g>
  <title>Layer 1</title>
  <text xml:space="preserve" text-anchor="start" font-family="Helvetica, Arial, sans-serif" font-size="24" id="svg_1" y="40" x="81.5" stroke-width="0" stroke="#000" fill="#000000">GF</text>
  <path id="svg_2" d="m65.701637,23.661535c-0.868988,1.537062 -4.611272,3.486612 -5.093943,3.486612l-4.102242,0c-0.680829,0 -1.706162,0.212757 -2.188832,0.700506c0.055448,0.078156 0.110896,0.156311 0.164526,0.235914c0.370865,0.548537 1.238035,1.32141 2.005217,1.32141c0.360866,0 0.657195,-0.166443 0.908983,-0.512354c1.070782,-1.457459 1.62708,-1.628243 1.949769,-1.628243c0.382682,0 0.711734,0.279334 0.905347,0.768531c0.363593,0.906027 0.096352,2.091388 -0.176343,3.020572c-0.65265,2.205727 -2.779671,4.589475 -5.085762,4.589475c-0.001818,0 -0.001818,0 -0.003636,0c-0.32178,0 -0.637197,-0.047762 -0.93898,-0.143285l0,4.705262c0,1.073917 0.93898,3.66608 3.787734,3.66608s3.595029,-5.356559 3.595029,-6.278507l0,-6.530342c2.027033,-1.691926 4.101333,-2.612426 5.093943,-5.637341c0.933526,-2.842551 0.047267,-3.301354 -0.820812,-1.764292zm-6.371973,6.84007c0.723551,-2.459009 -0.048176,-2.459009 -1.399834,-0.615114s-3.331424,0.151969 -4.006799,-0.846687c-0.675375,-0.997209 -1.350749,-1.76574 -2.557879,-1.689031c-1.20713,0.076708 -4.054066,-0.23302 -5.696599,-0.846687c-1.640715,-0.615114 -4.449473,-4.341982 -4.681264,-3.37951c-0.24179,0.998656 0.191795,1.690478 1.061693,3.37951c0.868079,1.691926 4.61309,4.020676 4.61309,4.020676s0,4.997622 0,7.071642c0,2.076915 2.702407,5.224852 4.101333,5.224852s2.461527,-1.537062 2.461527,-2.613873l0,-6.530342c2.316999,1.924946 5.381181,-0.71498 6.104732,-3.175436zm-1.454373,-5.486818c1.585267,0 2.871478,-2.046521 2.871478,-4.57066c0,-2.525586 -1.286211,-4.572107 -2.871478,-4.572107s-2.870569,2.046521 -2.870569,4.572107c0,2.524139 1.285302,4.57066 2.870569,4.57066zm-7.565468,0c1.585267,0 2.870569,-2.046521 2.870569,-4.57066c0,-2.525586 -1.285302,-4.572107 -2.870569,-4.572107c-1.586176,0 -2.871478,2.046521 -2.871478,4.572107c0,2.524139 1.284393,4.57066 2.871478,4.57066z" stroke-width="1.5" stroke="#000" fill="#fff"/>
 </g>
</svg>